<?xml version="1.0" encoding="UTF-8"?>
<!DOCTYPE svg PUBLIC "-//W3C//DTD SVG 1.1//EN" "http://www.w3.org/Graphics/SVG/1.1/DTD/svg11.dtd">
<svg xmlns="http://www.w3.org/2000/svg" version="1.1" width="152px" height="34px" style="shape-rendering:geometricPrecision; text-rendering:geometricPrecision; image-rendering:optimizeQuality; fill-rule:evenodd; clip-rule:evenodd" xmlns:xlink="http://www.w3.org/1999/xlink">
<g><path style="opacity:0.666" fill="#425dbd" d="M 3.5,9.5 C 7.58387,9.04308 11.4172,9.70975 15,11.5C 15.9439,14.3471 15.4439,16.8471 13.5,19C 15.0163,20.897 15.683,23.0637 15.5,25.5C 14.448,25.6495 13.448,25.4828 12.5,25C 11.1741,22.8416 9.50748,21.0082 7.5,19.5C 6.53443,21.396 6.2011,23.396 6.5,25.5C 5.16667,25.5 3.83333,25.5 2.5,25.5C 2.21754,20.0735 2.55087,14.7401 3.5,9.5 Z M 6.5,13.5 C 12.969,14.052 12.969,15.052 6.5,16.5C 6.5,15.5 6.5,14.5 6.5,13.5 Z"/></g>
<g><path style="opacity:0.615" fill="#425dbd" d="M 30.5,9.5 C 31.5,9.5 32.5,9.5 33.5,9.5C 33.5,14.8333 33.5,20.1667 33.5,25.5C 32.1667,25.5 30.8333,25.5 29.5,25.5C 29.2175,20.0735 29.5509,14.7401 30.5,9.5 Z"/></g>
<g><path style="opacity:0.614" fill="#425dbd" d="M 36.5,9.5 C 37.4959,9.41423 38.3292,9.74756 39,10.5C 39.5855,12.1293 40.4188,13.6293 41.5,15C 39.9145,17.2562 39.2479,19.7562 39.5,22.5C 40.5,22.5 41.5,22.5 42.5,22.5C 42.2229,19.5525 42.5562,16.7191 43.5,14C 45.1647,14.7436 46.8314,14.5769 48.5,13.5C 50.0293,13.5288 51.196,14.1955 52,15.5C 57.5875,12.0441 61.4208,13.3775 63.5,19.5C 61.4569,25.7753 57.6236,27.1086 52,23.5C 51.6667,21.1667 51.3333,18.8333 51,16.5C 49.6439,17.3802 48.1439,17.7135 46.5,17.5C 46.5,20.1667 46.5,22.8333 46.5,25.5C 42.8936,25.7892 39.3936,25.4558 36,24.5C 34.5394,19.3116 34.706,14.3116 36.5,9.5 Z M 56.5,16.5 C 60.1085,18.424 60.2752,20.424 57,22.5C 53.9243,20.6994 53.7576,18.6994 56.5,16.5 Z"/></g>
<g><path style="opacity:0.675" fill="#425dbd" d="M 104.5,9.5 C 105.5,9.5 106.5,9.5 107.5,9.5C 107.5,11.5 107.5,13.5 107.5,15.5C 109.5,15.5 111.5,15.5 113.5,15.5C 113.5,13.5 113.5,11.5 113.5,9.5C 114.822,9.33003 115.989,9.66337 117,10.5C 117.667,15.1667 117.667,19.8333 117,24.5C 115.989,25.3366 114.822,25.67 113.5,25.5C 113.5,23.5 113.5,21.5 113.5,19.5C 111.5,19.5 109.5,19.5 107.5,19.5C 107.5,21.5 107.5,23.5 107.5,25.5C 106.167,25.5 104.833,25.5 103.5,25.5C 103.218,20.0735 103.551,14.7401 104.5,9.5 Z"/></g>
<g><path style="opacity:0.685" fill="#425dbd" d="M 120.5,9.5 C 123.518,9.33537 126.518,9.50204 129.5,10C 133.482,12.9515 133.482,15.9515 129.5,19C 131.451,20.7342 132.451,22.9009 132.5,25.5C 131.022,25.762 129.689,25.4287 128.5,24.5C 125.116,17.6231 123.449,17.9564 123.5,25.5C 122.167,25.5 120.833,25.5 119.5,25.5C 119.218,20.0735 119.551,14.7401 120.5,9.5 Z M 123.5,13.5 C 129.969,14.052 129.969,15.052 123.5,16.5C 123.5,15.5 123.5,14.5 123.5,13.5 Z"/></g>
<g><path style="opacity:0.706" fill="#435dbd" d="M 134.5,9.5 C 136.288,9.21478 137.955,9.54811 139.5,10.5C 140.18,12.8889 141.014,15.2222 142,17.5C 142.511,15.1218 143.178,12.7885 144,10.5C 145.667,9.16667 147.333,9.16667 149,10.5C 149.499,15.4889 149.666,20.4889 149.5,25.5C 148.167,25.5 146.833,25.5 145.5,25.5C 145.547,19.1468 144.881,18.9801 143.5,25C 142.207,25.49 140.873,25.6567 139.5,25.5C 138.2,16.2756 137.534,16.2756 137.5,25.5C 136.5,25.5 135.5,25.5 134.5,25.5C 134.5,20.1667 134.5,14.8333 134.5,9.5 Z"/></g>
<g><path style="opacity:0.626" fill="#425dbd" d="M 20.5,13.5 C 25.6822,13.0178 28.3489,15.3511 28.5,20.5C 25.8127,20.3359 23.146,20.5026 20.5,21C 21.3333,21.8333 22.1667,22.6667 23,23.5C 24.5553,21.4848 26.3886,21.1515 28.5,22.5C 28.0233,23.4776 27.3567,24.3109 26.5,25C 20.984,26.9246 17.6507,25.0913 16.5,19.5C 16.8662,16.7441 18.1995,14.7441 20.5,13.5 Z M 21.5,16.5 C 22.7562,16.4614 23.7562,16.9614 24.5,18C 23.1667,18.6667 21.8333,18.6667 20.5,18C 21.056,17.6174 21.3893,17.1174 21.5,16.5 Z"/></g>
<g><path style="opacity:0.718" fill="#425dbd" d="M 64.5,13.5 C 67.4133,13.7236 70.4133,14.0569 73.5,14.5C 75.4139,17.7173 75.7473,21.0507 74.5,24.5C 73.675,25.3857 72.675,25.719 71.5,25.5C 71.8919,22.2784 71.3919,19.2784 70,16.5C 67.7492,19.0172 66.9159,22.0172 67.5,25.5C 66.5,25.5 65.5,25.5 64.5,25.5C 64.5,21.5 64.5,17.5 64.5,13.5 Z"/></g>
<g><path style="opacity:0.644" fill="#425dbd" d="M 79.5,13.5 C 85.1826,12.6464 87.8493,14.9797 87.5,20.5C 85.076,20.1924 82.7427,20.5258 80.5,21.5C 82.7713,22.3635 85.1046,22.3635 87.5,21.5C 87.67,22.8221 87.3366,23.9887 86.5,25C 78.5117,27.3409 75.3451,24.5075 77,16.5C 77.6979,15.3094 78.5313,14.3094 79.5,13.5 Z M 81.5,16.5 C 82.3764,16.3691 83.0431,16.7025 83.5,17.5C 81.1916,18.8734 80.5249,18.5401 81.5,16.5 Z"/></g>
<g><path style="opacity:0.678" fill="#425dbd" d="M 89.5,13.5 C 91.8568,13.3367 94.1902,13.5034 96.5,14C 97.3366,15.0113 97.67,16.1779 97.5,17.5C 95.8561,17.2865 94.3561,17.6198 93,18.5C 92.5034,20.8098 92.3367,23.1432 92.5,25.5C 91.5,25.5 90.5,25.5 89.5,25.5C 89.5,21.5 89.5,17.5 89.5,13.5 Z"/></g>
</svg>
